<svg xmlns="http://www.w3.org/2000/svg" viewBox="0 0 48 48" width="48" height="48">
  <circle cx="24" cy="24" r="24" fill="#0a0a0c"/>
  <path fill="#b91c2b" d="M24 6c-8 0-14 6-14 14 0 5.2 2.6 9.2 6 11.6V36c0 1.1.9 2 2 2h1v-4h2v4h6v-4h2v4h1c1.1 0 2-.9 2-2v-4.4c3.4-2.4 6-6.4 6-11.6 0-8-6-14-14-14Z"/>
  <circle cx="18.5" cy="21" r="3.4" fill="#0a0a0c"/>
  <circle cx="29.5" cy="21" r="3.4" fill="#0a0a0c"/>
  <path fill="#0a0a0c" d="M21 27.5h6l-1.2 3.4a2 2 0 0 1-1.8 1.3 2 2 0 0 1-1.8-1.3L21 27.5Z"/>
</svg>
